<svg width="80" height="80" viewBox="0 0 80 80" fill="none" xmlns="http://www.w3.org/2000/svg">
<rect width="80" height="80" rx="40" fill="#1B1B1B"/>
<path d="M42.9351 0.442505H35.702C33.788 0.444951 31.8966 0.86534 30.1542 1.67556C28.4118 2.48577 26.8587 3.66714 25.5986 5.14065C24.3386 6.61415 23.4007 8.34583 22.8477 10.2199C22.2947 12.0939 22.1394 14.0671 22.392 16.0075L22.602 19.3192C20.0307 19.7315 18.0638 22.0071 18.0638 24.7526C18.0638 27.74 20.3927 30.1712 23.2951 30.2506L23.602 35.0925C24.0125 38.2298 25.5229 41.1079 27.8523 43.1918C29.4176 44.5922 31.2813 45.57 33.2746 46.0603C26.7138 47.2485 20.5794 50.3511 15.6432 55.0572V55.0299C11.281 59.1883 8.03986 64.4257 6.23207 70.2374V70.5399C6.13556 70.8285 6.05477 71.1223 5.99007 71.4199L15.6364 71.5299L15.6428 71.5576H63.021L63.0274 71.5299L72.6744 71.4199C72.6553 71.3661 72.6353 71.3123 72.6154 71.2586C72.5233 71.0107 72.4324 70.766 72.4324 70.5399V70.2374C70.6147 64.4304 67.375 59.1954 63.0213 55.0299V55.059C58.089 50.3564 51.9599 47.2535 45.4047 46.0632C47.4024 45.5738 49.2703 44.5949 50.8387 43.1918C53.1681 41.1079 54.6784 38.2298 55.0889 35.0925L55.3828 30.2413C58.1913 30.0585 60.4138 27.671 60.4138 24.7526C60.4138 22.0669 58.5316 19.8308 56.0427 19.3488L56.2451 16.0075C56.4978 14.0671 56.3424 12.0939 55.7894 10.2199C55.2364 8.34583 54.2986 6.61415 53.0385 5.14065C51.7785 3.66714 50.2254 2.48577 48.483 1.67556C46.7406 0.86534 44.8492 0.444951 42.9351 0.442505Z" fill="#2C2C2C"/>
</svg>
