<svg width="85" height="85" viewBox="0 0 85 85" fill="none" xmlns="http://www.w3.org/2000/svg">
<path d="M60.4295 57.1094H42.4999V65.0781H31.4219C30.4903 65.0781 29.6621 65.5242 29.3774 66.4062L26.6858 76.1845C26.1423 77.9234 27.4623 79.6875 29.3256 79.6875C30.102 79.6875 30.8526 79.3851 31.3702 78.8307L34.5794 75.4284C35.097 74.874 35.8734 74.375 36.6498 74.375H60.4295C65.1973 74.375 69.0624 70.51 69.0624 65.7422C69.0624 60.9744 65.1973 57.1094 60.4295 57.1094Z" fill="#D6A089"/>
<path d="M42.5 57.1094H24.5703C19.8025 57.1094 15.9375 60.9744 15.9375 65.7422C15.9375 70.2859 19.4478 74.0097 23.9043 74.3497C23.9049 74.3582 23.9055 74.3666 23.9061 74.375H48.3498C49.1262 74.375 49.9026 74.874 50.4202 75.4284L53.6294 78.8307C54.147 79.3851 54.8975 79.6875 55.674 79.6875C57.5373 79.6875 58.8575 77.9234 58.314 76.1845L55.6225 66.4062C55.3556 65.5793 54.611 65.1356 53.7513 65.0833C53.694 65.0799 53.6361 65.0781 53.5779 65.0781H42.5V57.1094Z" fill="#E4B29A"/>
<path d="M26.5625 45.1562C26.5625 36.3542 33.698 29.2188 42.5 29.2188C51.302 29.2188 58.4375 36.3542 58.4375 45.1562V46.8761C58.4375 47.8125 58.8561 48.3959 59.1016 49.1406C59.9095 51.6534 62.8736 54.0559 65.5647 56.2976C66.5008 57.0774 67.4041 57.8299 68.1719 58.5469L70.5891 58.15C71.2531 58.0442 71.8641 58.4676 71.9703 59.1291C72.0766 59.7906 71.6516 60.3991 70.9875 60.505L70.536 60.5844C70.7485 60.849 70.9078 61.14 71.0406 61.4576C71.6781 61.828 72.4219 61.9868 73.1656 61.9074C73.7234 61.8545 74.2547 62.1984 74.361 62.7541C74.4406 63.2568 74.175 63.7331 73.7234 63.9184C73.9891 64.0771 74.2016 64.3682 74.2281 64.7122C74.3078 65.2943 73.8828 65.8235 73.2985 65.8764H73.2719V65.9293C73.3516 66.5114 72.9266 67.0406 72.3422 67.0936C71.7313 67.1729 71.1203 67.1465 70.536 67.0142C70.3766 67.464 69.925 67.7815 69.4203 67.7286C68.3047 67.6228 67.2688 67.2259 66.3922 66.5379C57.0893 59.3464 55.9425 58.4598 54.9061 57.459C54.7604 57.3183 54.6168 57.1753 54.4531 57.0122C53.125 55.6892 51.7969 53.0431 51.7969 51.7201H49.1406V47.8125H35.8594V51.7201H33.2031C33.2031 53.0431 31.875 55.6892 30.5469 57.0122C30.3833 57.1751 30.2395 57.3184 30.0939 57.459C29.0575 58.4598 27.9107 59.3464 18.6078 66.5379C17.7312 67.2259 16.6953 67.6228 15.5797 67.7286C15.075 67.7815 14.6234 67.464 14.464 67.0142C13.8797 67.1465 13.2687 67.1729 12.6578 67.0936C12.0734 67.0406 11.6484 66.5114 11.7281 65.9293V65.8764H11.7015C11.1172 65.8235 10.6922 65.2943 10.7719 64.7122C10.7984 64.3682 11.0109 64.0771 11.2765 63.9184C10.825 63.7331 10.5594 63.2568 10.639 62.7541C10.7453 62.1984 11.2765 61.8545 11.8344 61.9074C12.5781 61.9868 13.3219 61.828 13.9594 61.4576C14.0922 61.14 14.2515 60.849 14.464 60.5844L14.0125 60.505C13.3484 60.3991 12.9234 59.7906 13.0297 59.1291C13.1359 58.4676 13.7469 58.0442 14.4109 58.15L16.8281 58.5469C17.596 57.8298 18.4991 57.0775 19.4353 56.2976C22.1264 54.0559 25.0905 51.6534 25.8984 49.1406C26.1439 48.3959 26.5625 47.8125 26.5625 46.8761V45.1562Z" fill="#EEBFAA"/>
<path d="M53.125 57.1094H31.875V33.2768C32.3887 32.7536 33.2997 32.0281 34.5312 31.335L42.6413 31.335L50.4414 31.335C51.4038 31.8891 52.3028 32.5409 53.125 33.2768V57.1094Z" fill="#00A6ED"/>
<path d="M42.0954 39.8438H42.8769C47.0636 39.8438 50.4688 36.5786 50.4688 32.5642V31.333C48.0405 29.9681 45.3331 29.2188 42.4861 29.2188C39.6671 29.2188 36.9597 29.9681 34.5314 31.3063V32.5909C34.5035 36.6054 37.9087 39.8438 42.0954 39.8438Z" fill="#E4B29A"/>
<path d="M17.0465 60.9627C17.1189 60.9064 17.2232 60.9195 17.2795 60.9918C17.3358 61.0642 17.3227 61.1685 17.2503 61.2248L14.7116 63.1989C14.1308 63.6489 13.4415 63.9156 12.7142 63.9764C12.4665 63.9972 12.2144 63.9942 11.9607 63.9664L11.9567 63.9659C11.9548 63.9656 11.9529 63.9654 11.951 63.9651C11.7565 63.946 11.5804 63.9878 11.3948 64.0784C11.1647 64.2138 11.0013 64.4518 10.9754 64.7333L10.9745 64.7408C10.9141 65.1776 11.2021 65.5817 11.6257 65.6839C11.7147 65.405 11.9042 65.1745 12.1481 65.0283C12.3816 64.8839 12.6648 64.814 12.9506 64.8408C13.8646 64.941 14.7537 64.6911 15.463 64.1416L18.73 61.6011C18.8024 61.5449 18.9067 61.5579 18.963 61.6303C19.0187 61.7019 19.0065 61.8048 18.9361 61.8615C18.928 61.8716 18.9186 61.881 18.9079 61.8894L15.6407 64.4299C14.8625 65.0328 13.8895 65.3067 12.891 65.1973L12.887 65.1968C12.6784 65.1687 12.4785 65.2159 12.314 65.316C12.1115 65.4454 11.9659 65.6503 11.9306 65.8943L11.91 66.0365H11.8984C11.8707 66.4905 12.2147 66.8939 12.6849 66.936L12.6912 66.9367C13.2238 67.0052 13.7555 66.9915 14.2679 66.8961C14.28 66.9609 14.3001 67.02 14.316 67.067L14.319 67.0759L14.3402 67.0688C14.321 67.0115 14.306 66.952 14.2957 66.8908L14.2679 66.8961C14.2619 66.8636 14.2578 66.8297 14.2572 66.7952L14.2579 66.8023L14.284 66.7999L14.2829 66.7871H14.2572L14.2572 66.7952C14.2 66.1326 14.6886 65.5308 15.3629 65.4694C16.0489 65.394 16.6578 65.1438 17.1922 64.7423C17.2119 64.7276 17.2338 64.7178 17.2564 64.7129L20.4836 62.2034C20.5559 62.1472 20.6602 62.1602 20.7165 62.2326C20.7728 62.305 20.7598 62.4093 20.6874 62.4656L17.4202 65.0061L17.418 65.0078C16.8372 65.4442 16.1716 65.7177 15.4239 65.7996L15.4206 65.8C14.9294 65.844 14.57 66.2853 14.6148 66.7718C14.659 67.2508 15.104 67.6092 15.6031 67.5646C15.8052 67.5456 16.0045 67.516 16.2007 67.4763C16.2905 67.4581 16.3781 67.5162 16.3963 67.6061C16.4145 67.696 16.3564 67.7836 16.2666 67.8017C16.0588 67.8438 15.8477 67.8751 15.6338 67.8952C15.1094 67.9422 14.6163 67.6581 14.3977 67.2092C13.8299 67.3229 13.2405 67.3418 12.652 67.2664C12.0059 67.2068 11.5253 66.6481 11.5672 66.0112C10.9746 65.8785 10.5616 65.3167 10.6451 64.699C10.6735 64.4017 10.8107 64.1413 11.0135 63.9515C10.6665 63.7043 10.4629 63.2946 10.5133 62.8414C10.5761 62.1707 11.1928 61.6873 11.8672 61.7768C12.7806 61.8764 13.6664 61.6262 14.3752 61.077C14.4477 61.0209 14.552 61.0341 14.6081 61.1066C14.6643 61.1791 14.6511 61.2834 14.5786 61.3395C13.8004 61.9424 12.8276 62.2161 11.8291 62.1067L11.8251 62.1062C11.3322 62.0399 10.888 62.3935 10.8438 62.8736L10.8434 62.8769C10.802 63.2449 10.9914 63.5768 11.3122 63.7464C11.5148 63.6483 11.7477 63.6053 11.9883 63.6352C11.9916 63.6355 11.9948 63.6358 11.9981 63.6362C12.2302 63.6616 12.4605 63.6645 12.6866 63.6455C13.3505 63.5898 13.978 63.3464 14.5068 62.9367C14.5107 62.9337 14.5147 62.9309 14.5188 62.9282L17.0465 60.9627Z" fill="#D6A089"/>
<path fill-rule="evenodd" clip-rule="evenodd" d="M67.994 60.9627C67.9217 60.9064 67.8174 60.9195 67.7611 60.9918C67.7048 61.0642 67.7178 61.1685 67.7902 61.2248L70.3289 63.1989C70.8946 63.6371 71.5632 63.9016 72.2695 63.9712C72.5354 63.9976 72.8067 63.9963 73.0798 63.9664L73.0839 63.9659L73.0896 63.9651C73.2841 63.946 73.4602 63.9878 73.6458 64.0784C73.8758 64.2138 74.0392 64.4518 74.0652 64.7333L74.0661 64.7408C74.1265 65.1776 73.8385 65.5817 73.4149 65.6839C73.3258 65.405 73.1364 65.1746 72.8925 65.0284C72.659 64.8839 72.3758 64.814 72.09 64.8408C71.176 64.941 70.2869 64.6911 69.5776 64.1416L66.3105 61.6011C66.2382 61.5449 66.1339 61.5579 66.0776 61.6303C66.0219 61.7019 66.0341 61.8048 66.1044 61.8615C66.1125 61.8716 66.1219 61.881 66.1327 61.8894L69.3998 64.4299C70.1781 65.0328 71.151 65.3067 72.1495 65.1973L72.1536 65.1968C72.3622 65.1687 72.562 65.2159 72.7265 65.316C72.9291 65.4454 73.0746 65.6503 73.11 65.8943L73.1306 66.0365H73.1422C73.1698 66.4905 72.8258 66.8939 72.3557 66.936L72.3493 66.9367C71.8168 67.0052 71.285 66.9915 70.7726 66.8961C70.7787 66.8636 70.7828 66.8297 70.7833 66.7952C70.8405 66.1326 70.3519 65.5308 69.6777 65.4694C68.9917 65.394 68.3827 65.1438 67.8483 64.7423C67.8287 64.7276 67.8067 64.7178 67.7841 64.7129L64.557 62.2034C64.4846 62.1472 64.3803 62.1602 64.324 62.2326C64.2677 62.305 64.2808 62.4093 64.3532 62.4656L67.6204 65.0061L67.6226 65.0078C68.2034 65.4442 68.8689 65.7177 69.6167 65.7997L69.6199 65.8C70.1111 65.844 70.4706 66.2853 70.4257 66.7718C70.3815 67.2508 69.9366 67.6092 69.4374 67.5646C69.2354 67.5456 69.036 67.516 68.8399 67.4763C68.75 67.4581 68.6624 67.5162 68.6442 67.6061C68.626 67.696 68.6841 67.7836 68.774 67.8017C68.9817 67.8438 69.1928 67.8751 69.4067 67.8952C69.9312 67.9422 70.4243 67.6581 70.6429 67.2092C71.2106 67.3229 71.8 67.3418 72.3886 67.2664C73.0347 67.2068 73.5153 66.6481 73.4733 66.0112C74.0659 65.8785 74.4789 65.3167 74.3955 64.699C74.3671 64.4017 74.2299 64.1413 74.027 63.9515C74.3741 63.7043 74.5777 63.2946 74.5273 62.8414C74.4645 62.1707 73.8478 61.6873 73.1733 61.7768C72.26 61.8764 71.3741 61.6262 70.6653 61.077C70.5928 61.0209 70.4886 61.0341 70.4324 61.1066C70.3763 61.1791 70.3895 61.2834 70.462 61.3395C71.2402 61.9424 72.2129 62.2161 73.2114 62.1067L73.2155 62.1062C73.7084 62.0399 74.1525 62.3935 74.1967 62.8736L74.1971 62.8769C74.2386 63.2449 74.0492 63.5769 73.7284 63.7465C73.5257 63.6483 73.2928 63.6053 73.0523 63.6352L73.0424 63.6362C72.8103 63.6616 72.58 63.6645 72.3539 63.6455C71.69 63.5898 71.0626 63.3464 70.5337 62.9367L70.5217 62.9282L67.994 60.9627ZM70.7833 66.7952L70.7827 66.8023L70.7566 66.7999L70.7576 66.7871H70.7834L70.7833 66.7952ZM70.7726 66.8961C70.7605 66.9609 70.7405 67.02 70.7246 67.067L70.7215 67.0759L70.7003 67.0688C70.7196 67.0115 70.7345 66.952 70.7448 66.8908L70.7726 66.8961Z" fill="#D6A089"/>
<path d="M53.125 57.1094H31.875L36.2046 65.0781H48.6461L53.125 57.1094Z" fill="#9B9B9B"/>
<path d="M51.0299 9.18856L50.3329 8.83619C49.8503 8.59225 49.3946 8.26699 49.0192 7.88752L47.6788 6.53227C46.6601 5.52938 45.1856 5.17702 43.8452 5.6378C42.9874 5.93596 42.0223 5.93596 41.1644 5.6378C39.9848 5.04149 38.564 5.28544 37.6257 6.20701L35.9636 7.88752C35.5882 8.26699 35.1325 8.59225 34.65 8.83619L33.9529 9.18856C32.6929 9.81197 31.9959 11.2214 32.264 12.6309L33.1755 17.6995C33.2559 18.2145 33.6849 18.594 34.1942 18.594C34.1942 18.594 34.087 17.1574 34.0334 16.2359C34.0066 15.748 34.1942 15.2872 34.5427 14.9619L34.8376 14.6909C35.2397 14.3114 35.481 13.7964 35.481 13.2272V11.8177C35.481 11.4112 35.7491 11.0588 36.1512 10.9775C37.1967 10.7064 39.4218 10.2728 42.5048 10.2728C45.5878 10.2728 47.8129 10.7335 48.8584 10.9775C49.2337 11.0859 49.5286 11.4383 49.5286 11.8177V13.2272C49.5286 13.7964 49.7699 14.3114 50.172 14.6909L50.4937 14.989C50.8422 15.3143 51.0299 15.7751 51.0031 16.2359C50.9494 17.1574 50.8422 18.594 50.8422 18.594C51.3248 18.5669 51.7537 18.2145 51.8341 17.6995L52.7456 12.6309C52.9869 11.2214 52.2899 9.81197 51.0299 9.18856Z" fill="#FFF9BA"/>
<path fill-rule="evenodd" clip-rule="evenodd" d="M50.9709 16.7554C50.9153 17.6154 50.8422 18.594 50.8422 18.594C51.3248 18.5669 51.7537 18.2145 51.8341 17.6995L51.9333 17.1479C52.6514 17.6234 53.125 18.4385 53.125 19.3643C53.125 20.8313 51.9358 22.0205 50.4688 22.0205C49.0017 22.0205 47.8125 20.8313 47.8125 19.3643C47.8125 17.8973 49.0017 16.708 50.4688 16.708C50.6404 16.708 50.8083 16.7243 50.9709 16.7554ZM33.0753 17.1422L33.1755 17.6995C33.2559 18.2145 33.6849 18.594 34.1942 18.594C34.1942 18.594 34.1208 17.6103 34.0651 16.7488C34.2164 16.722 34.3722 16.708 34.5312 16.708C35.9983 16.708 37.1875 17.8973 37.1875 19.3643C37.1875 20.8313 35.9983 22.0205 34.5312 22.0205C33.0642 22.0205 31.875 20.8313 31.875 19.3643C31.875 18.4348 32.3524 17.6169 33.0753 17.1422Z" fill="#E4B29A"/>
<path fill-rule="evenodd" clip-rule="evenodd" d="M34.0412 18.5824C34.0911 18.59 34.1421 18.5939 34.194 18.5939C34.194 18.5939 34.0868 17.1574 34.0331 16.2358C34.0063 15.7479 34.194 15.2871 34.5425 14.9619L34.8374 14.6908C35.2395 14.3114 35.4808 13.7964 35.4808 13.2272V11.8177C35.4808 11.4111 35.7489 11.0588 36.151 10.9774C37.1965 10.7064 39.4216 10.2727 42.5046 10.2727C45.5875 10.2727 47.8126 10.7335 48.8582 10.9774C49.2335 11.0859 49.5284 11.4382 49.5284 11.8177V13.2272C49.5284 13.7964 49.7697 14.3114 50.1718 14.6908L50.4935 14.989C50.842 15.3142 51.0296 15.775 51.0028 16.2358C50.9492 17.1574 50.842 18.5939 50.842 18.5939C50.8812 18.5917 50.92 18.5874 50.9583 18.581L50.459 25.602C50.1869 28.482 47.9284 30.5469 45.1528 30.5469H39.8466C37.0982 30.5469 34.8125 28.482 34.5404 25.602L34.0412 18.5824Z" fill="#EEBFAA"/>
<path d="M42.5 25.213C41.6545 25.213 40.8837 24.9927 40.2123 24.6071C39.9885 24.4694 39.7398 24.7724 39.889 24.9927C40.4361 25.9291 41.4059 26.5625 42.5 26.5625C43.5941 26.5625 44.5639 25.9291 45.111 24.9927C45.2602 24.7448 45.0115 24.4694 44.7877 24.6071C44.1412 24.9927 43.3455 25.213 42.5 25.213Z" fill="#990838"/>
<path d="M41.9623 19.04L41.2083 21.9861C41.0484 22.5975 41.4368 23.209 41.9395 23.209H43.0591C43.5846 23.209 43.9502 22.5975 43.7902 21.9861L43.0362 19.04C42.8763 18.4007 42.1223 18.4007 41.9623 19.04Z" fill="#D19479"/>
<path fill-rule="evenodd" clip-rule="evenodd" d="M44.8131 18.3572C44.6824 18.1801 44.433 18.1425 44.2559 18.2732C44.0788 18.4038 44.0412 18.6533 44.1719 18.8303C44.6164 19.4328 45.3626 19.7891 46.1526 19.7891C46.9427 19.7891 47.6889 19.4328 48.1334 18.8303C48.264 18.6533 48.2264 18.4038 48.0493 18.2732C47.8723 18.1425 47.6228 18.1801 47.4922 18.3572C47.2104 18.7392 46.7114 18.9922 46.1526 18.9922C45.5938 18.9922 45.0949 18.7392 44.8131 18.3572ZM37.5084 18.3572C37.3777 18.1801 37.1283 18.1425 36.9512 18.2732C36.7742 18.4038 36.7365 18.6533 36.8672 18.8303C37.3117 19.4328 38.0579 19.7891 38.8479 19.7891C39.638 19.7891 40.3842 19.4328 40.8287 18.8303C40.9594 18.6533 40.9217 18.4038 40.7447 18.2732C40.5676 18.1425 40.3181 18.1801 40.1875 18.3572C39.9057 18.7392 39.4067 18.9922 38.8479 18.9922C38.2891 18.9922 37.7902 18.7392 37.5084 18.3572Z" fill="#A56953"/>
<path fill-rule="evenodd" clip-rule="evenodd" d="M48.971 16.1242C49.2648 15.7356 49.1874 15.1819 48.7988 14.8881L48.794 14.8845L48.787 14.8793L48.768 14.8656C48.7531 14.8549 48.7338 14.8414 48.7102 14.8255C48.663 14.7937 48.5985 14.7522 48.5177 14.705C48.3565 14.6107 48.1282 14.4919 47.8422 14.3811C47.271 14.1599 46.4541 13.9651 45.4823 14.0785C44.9984 14.1349 44.6519 14.573 44.7083 15.0569C44.7648 15.5408 45.2028 15.8873 45.6867 15.8309C46.3087 15.7583 46.8332 15.8823 47.205 16.0263C47.3905 16.0981 47.534 16.1735 47.6269 16.2278C47.6731 16.2549 47.706 16.2763 47.7247 16.2888L47.7413 16.3003C48.1296 16.5888 48.6787 16.5108 48.971 16.1242ZM36.6855 14.8885C36.2969 15.1824 36.2201 15.7356 36.5139 16.1242C36.8062 16.5108 37.3553 16.5888 37.7436 16.3003L37.7603 16.2888C37.7789 16.2763 37.8118 16.2549 37.858 16.2278C37.9509 16.1735 38.0944 16.0981 38.2799 16.0263C38.6517 15.8823 39.1762 15.7583 39.7981 15.8309C40.2821 15.8873 40.7201 15.5408 40.7766 15.0569C40.833 14.573 40.4865 14.1349 40.0026 14.0785C39.0308 13.9651 38.2139 14.1599 37.6427 14.3811C37.3567 14.4919 37.1284 14.6107 36.9672 14.705L36.6855 14.8885Z" fill="#A56953"/>
</svg>
