<svg width="85" height="85" viewBox="0 0 85 85" fill="none" xmlns="http://www.w3.org/2000/svg">
<path d="M28.6703 31.875C34.7891 31.875 39.7639 36.8505 39.7639 42.9701C39.7639 46.3491 38.2475 49.3557 35.8798 51.4044C38.354 54.3844 39.8438 58.2424 39.8438 62.4197C39.8438 71.9449 32.1022 79.6875 22.5781 79.6875C13.0541 79.6875 5.3125 71.9449 5.3125 62.4197C5.3125 54.4908 10.6598 47.8125 17.9491 45.7904C17.7097 44.8857 17.5767 43.9279 17.5767 42.9701C17.5767 36.8505 22.5515 31.875 28.6703 31.875Z" fill="#E6E6E6"/>
<path d="M67.4233 42.9701C67.4233 43.9545 67.2903 44.8857 67.0509 45.7904C74.3136 47.8125 79.6609 54.4908 79.6875 62.4197C79.6875 71.9449 71.9459 79.6875 62.4219 79.6875C52.8979 79.6875 45.1562 71.9449 45.1562 62.4197C45.1562 58.2424 46.646 54.3844 49.1202 51.4044C46.7525 49.3557 45.2361 46.3491 45.2361 42.9701C45.2361 36.8505 50.2109 31.875 56.3297 31.875C62.4485 31.875 67.4233 36.8505 67.4233 42.9701Z" fill="#E6E6E6"/>
<path d="M71.7188 79.6875H13.2812C13.2812 79.6875 13.2812 77.9266 13.2812 77.0312C13.2812 60.8942 26.3629 47.8125 42.5 47.8125C58.6371 47.8125 71.7188 60.8942 71.7188 77.0312C71.7188 77.9266 71.7188 79.6875 71.7188 79.6875Z" fill="#00A6ED"/>
<path d="M47.8922 46.7235C47.8922 47.6001 48.4766 48.3439 49.3266 48.5564C51.5933 49.1077 53.7564 49.9233 55.7812 50.9687L42.4336 79.5548L29.2188 50.9082C31.2128 49.8918 33.3397 49.097 35.5672 48.5564C36.4172 48.3439 37.0016 47.6001 37.0016 46.7235V41.4907C37.0016 38.4892 39.4453 36.0454 42.4469 36.0454C45.4484 36.0454 47.8922 38.4892 47.8922 41.4907V46.7235Z" fill="#E4B29A"/>
<path d="M33.8672 28.2227C33.8672 30.6065 31.9347 32.5391 29.5508 32.5391C27.1669 32.5391 25.2344 30.6065 25.2344 28.2227C25.2344 25.8388 27.1669 23.9062 29.5508 23.9062C31.9347 23.9062 33.8672 25.8388 33.8672 28.2227Z" fill="#E4B29A"/>
<path d="M59.7656 28.2227C59.7656 30.6065 57.8331 32.5391 55.4492 32.5391C53.0653 32.5391 51.1328 30.6065 51.1328 28.2227C51.1328 25.8388 53.0653 23.9062 55.4492 23.9062C57.8331 23.9062 59.7656 25.8388 59.7656 28.2227Z" fill="#E4B29A"/>
<path d="M29.22 43.8281C32.1441 41.1907 37.1888 41.1719 37.1888 41.1719V46.4844C37.1888 48.2571 35.7042 48.6006 34.8266 48.8036C34.718 48.8287 34.6186 48.8517 34.5325 48.875C33.4094 49.2184 33.5734 50.4159 34.5325 53.125L42.5006 73.0453L50.4688 53.125C51.4279 50.4159 51.5919 49.2184 50.4688 48.875C50.3827 48.8517 50.2833 48.8287 50.1747 48.8036C49.2971 48.6006 47.8125 48.2571 47.8125 46.4844V41.1719C47.8125 41.1719 52.8572 41.1907 55.7813 43.8281C58.2861 46.0874 58.9374 50.1133 58.0829 52.5961L47.7056 79.6876H37.2957L26.9184 52.5961C26.0639 50.1133 26.7152 46.0874 29.22 43.8281Z" fill="#3BC6F6"/>
<path d="M41.3152 7.96876C39.5632 7.96785 37.8298 8.33425 36.223 9.04509C34.6163 9.75594 33.1708 10.796 31.9766 12.1004C30.7823 13.4048 29.8651 14.9455 29.2819 16.6266C28.6987 18.3076 28.4622 20.0929 28.5871 21.871L29.5742 37.0419C29.726 39.2527 30.6992 41.3218 32.2962 42.8289C33.8931 44.336 35.9941 45.168 38.1722 45.1559H46.7181C48.9034 45.1752 51.0139 44.3471 52.6206 42.8399C54.2273 41.3327 55.2097 39.2596 55.368 37.0419L56.4071 21.9503C56.5432 20.1658 56.3151 18.3719 55.737 16.6814C55.1589 14.991 54.2434 13.4404 53.048 12.1273C51.8527 10.8142 50.4032 9.76692 48.7909 9.05126C47.1785 8.33559 45.4381 7.96703 43.679 7.96876H41.3152Z" fill="#EEBFAA"/>
<path d="M42.5014 36.9104C41.0391 36.9104 39.6581 36.5417 38.4938 35.9176C38.0876 35.6907 37.6814 36.1729 37.9251 36.57C38.9 38.1302 40.5788 39.1797 42.5014 39.1797C44.4239 39.1797 46.1028 38.1302 47.0776 36.57C47.3213 36.1729 46.888 35.7191 46.509 35.9176C45.3446 36.5417 43.9636 36.9104 42.5014 36.9104Z" fill="#990838"/>
<path d="M41.5559 27.3136L40.239 31.9614C39.9657 32.9127 40.6117 33.864 41.531 33.864H43.469C44.3883 33.864 45.0343 32.9127 44.761 31.9614L43.4441 27.3136C43.1708 26.3079 41.8292 26.3079 41.5559 27.3136Z" fill="#D19479"/>
<path d="M32.4254 27.3834C32.8239 25.6561 34.3114 24.3745 36.091 24.3745C37.9504 24.3745 39.4645 25.7396 39.7832 27.5784C39.8629 27.9963 39.5707 28.3584 39.1723 28.3584H33.1426C32.6645 28.3584 32.3192 27.8848 32.4254 27.3834Z" fill="white"/>
<path d="M52.7192 27.3834C52.3207 25.6561 50.8332 24.3745 49.0535 24.3745C47.2207 24.3745 45.6801 25.7396 45.3614 27.5784C45.2817 27.9963 45.5739 28.3584 45.9723 28.3584H52.002C52.4801 28.3584 52.8254 27.8848 52.7192 27.3834Z" fill="white"/>
<path d="M34.2316 27.6849C34.2316 26.2821 35.3207 25.1318 36.6488 25.1318C38.0035 25.1318 39.0926 26.2541 39.066 27.6849C39.066 27.9094 39.0395 28.1338 38.9863 28.3583H34.3113C34.2582 28.1338 34.2316 27.9094 34.2316 27.6849Z" fill="#7D4533"/>
<path d="M50.9128 27.6849C50.9128 26.2821 49.8237 25.1318 48.4956 25.1318C47.1675 25.1318 46.0784 26.2541 46.0784 27.6849C46.0784 27.9094 46.105 28.1338 46.1581 28.3583H50.8331C50.8862 28.1338 50.9128 27.9094 50.9128 27.6849Z" fill="#7D4533"/>
<path d="M36.6492 26.2266C37.4195 26.2266 38.0304 26.8718 38.0304 27.6855C38.0304 27.938 37.9773 28.1624 37.8711 28.3588H35.4273C35.3211 28.1624 35.2679 27.938 35.2679 27.6855C35.2679 26.8718 35.8789 26.2266 36.6492 26.2266Z" fill="black"/>
<path d="M48.496 26.2266C47.7257 26.2266 47.1147 26.8718 47.1147 27.6855C47.1147 27.938 47.1678 28.1624 47.2741 28.3588H49.7178C49.8241 28.1624 49.8772 27.938 49.8772 27.6855C49.8772 26.8718 49.2663 26.2266 48.496 26.2266Z" fill="black"/>
<path d="M36.2509 26.6755C36.2509 26.9234 36.0606 27.1243 35.8259 27.1243C35.5912 27.1243 35.4009 26.9234 35.4009 26.6755C35.4009 26.4275 35.5912 26.2266 35.8259 26.2266C36.0606 26.2266 36.2509 26.4275 36.2509 26.6755Z" fill="white"/>
<path d="M48.1774 26.6755C48.1774 26.9234 47.9871 27.1243 47.7524 27.1243C47.5177 27.1243 47.3274 26.9234 47.3274 26.6755C47.3274 26.4275 47.5177 26.2266 47.7524 26.2266C47.9871 26.2266 48.1774 26.4275 48.1774 26.6755Z" fill="white"/>
<path d="M50.8671 23.7525C51.1314 23.9394 51.4465 24.0413 51.7702 24.0447V24.0182C52.078 24.0147 52.3771 23.9158 52.6263 23.7351C52.8755 23.5545 53.0625 23.301 53.1616 23.0096C53.2607 22.7182 53.2669 22.4032 53.1795 22.1081C53.092 21.813 52.9152 21.5523 52.6733 21.3619C51.036 20.2336 49.0428 19.7424 47.0686 19.9807C46.8733 20.0033 46.6843 20.0643 46.5125 20.16C46.3407 20.2557 46.1895 20.3843 46.0674 20.5384C45.9453 20.6926 45.8547 20.8693 45.8009 21.0584C45.7471 21.2476 45.7311 21.4455 45.7538 21.6408C45.7765 21.8362 45.8374 22.0251 45.9331 22.1969C46.0288 22.3687 46.1574 22.52 46.3115 22.6421C46.4657 22.7642 46.6424 22.8547 46.8315 22.9085C47.0207 22.9623 47.2186 22.9783 47.4139 22.9557C48.6242 22.7773 49.8573 23.0619 50.8671 23.7525Z" fill="#A56953"/>
<path d="M32.2405 23.7617C32.4897 23.9424 32.7888 24.0413 33.0966 24.0448C33.4175 24.0492 33.7323 23.9566 33.9997 23.7791C35.0095 23.0884 36.2425 22.8039 37.4528 22.9823C37.6482 23.0049 37.8461 22.9889 38.0352 22.9351C38.2244 22.8813 38.4011 22.7908 38.5552 22.6687C38.7094 22.5466 38.838 22.3953 38.9337 22.2235C39.0294 22.0517 39.0903 21.8628 39.113 21.6674C39.1357 21.4721 39.1196 21.2742 39.0658 21.085C39.012 20.8959 38.9215 20.7192 38.7994 20.565C38.6773 20.4109 38.526 20.2823 38.3542 20.1866C38.1824 20.0909 37.9935 20.0299 37.7981 20.0073C35.824 19.7689 33.8308 20.2602 32.1934 21.3885C31.9516 21.5789 31.7747 21.8396 31.6873 22.1347C31.5998 22.4298 31.6061 22.7448 31.7052 23.0362C31.8042 23.3276 31.9913 23.5811 32.2405 23.7617Z" fill="#A56953"/>
<path d="M55.6445 11.6925L54.5924 11.1113C53.8334 10.7177 53.1457 10.1809 52.5615 9.52621L50.4818 7.30706C49.7203 6.48976 48.7613 5.92013 47.7143 5.6632C46.6673 5.40627 45.5744 5.47241 44.5606 5.85405C43.2129 6.35525 41.7487 6.35525 40.4011 5.85405C39.5143 5.37363 38.51 5.20696 37.5306 5.37767C36.5512 5.54839 35.6464 6.04783 34.9448 6.80511L32.498 9.44696C31.9003 10.0964 31.2055 10.6323 30.4427 11.0321L29.3906 11.6133C28.4021 12.1102 27.5957 12.9493 27.0992 13.9974C26.6027 15.0456 26.4447 16.2427 26.6502 17.3989L28.0693 25.7471C28.1366 26.1535 28.3315 26.5224 28.6211 26.7918C28.9108 27.0613 29.2775 27.2148 29.6597 27.2266C29.6597 27.2266 29.5129 24.8489 29.415 23.3166C29.4138 22.922 29.4945 22.532 29.6511 22.1754C29.8078 21.8188 30.0365 21.5046 30.3203 21.256L30.7852 20.8069C31.1012 20.5063 31.3541 20.1363 31.5271 19.7217C31.7001 19.3072 31.7892 18.8575 31.7884 18.4028V16.0516C31.788 15.7349 31.8833 15.4268 32.06 15.174C32.2367 14.9213 32.485 14.7377 32.7671 14.6514C35.976 13.8508 39.2609 13.4607 42.5542 13.489C45.8477 13.4579 49.1329 13.8481 52.3413 14.6514C52.6347 14.7236 52.8964 14.9017 53.0833 15.1563C53.2701 15.4109 53.3709 15.7267 53.369 16.0516V18.4028C53.3636 18.8558 53.4481 19.3047 53.6169 19.7194C53.7858 20.1341 54.0349 20.5049 54.3477 20.8069L54.837 21.2824C55.1071 21.5364 55.3186 21.8549 55.4545 22.2126C55.5904 22.5704 55.6471 22.9575 55.62 23.3431C55.62 24.8753 55.3998 27.2266 55.3998 27.2266C55.772 27.1986 56.1252 27.0382 56.4041 26.7705C56.683 26.5029 56.8719 26.143 56.9413 25.7471L58.3604 17.3989C58.5503 16.2578 58.3872 15.0809 57.8964 14.0497C57.4056 13.0185 56.6143 12.1902 55.6445 11.6925Z" fill="#FFF9BA"/>
<path d="M5.3125 79.6875H29.2188C29.2188 70.8772 22.0837 63.75 13.2637 63.75H5.3125V79.6875Z" fill="#F4F4F4"/>
<path d="M79.6875 79.6875H55.7812C55.7812 70.8772 62.9163 63.75 71.7363 63.75H79.6875V79.6875Z" fill="#F4F4F4"/>
</svg>
