<svg width="85" height="85" viewBox="0 0 85 85" fill="none" xmlns="http://www.w3.org/2000/svg">
<path d="M27.0938 26.8547L26.6157 27.7844H58.225L57.7735 26.9078C57.2577 25.8995 56.6509 24.583 55.9659 23.0972C54.5964 20.1262 52.9146 16.4777 51.024 13.2603L56.9739 13.2883C58.6784 13.2883 59.4389 11.0836 58.0753 10.0477C53.125 6.64072 48.2692 5.3125 42.4204 5.3125C37.135 5.3125 32.2236 15.9097 28.9842 22.8993C28.2675 24.4456 27.6327 25.8153 27.0938 26.8547Z" fill="#0074BA"/>
<path d="M26.0049 26.9609L25.5003 27.9703H59.3409L58.8628 27.0141C58.0128 25.3672 56.9503 23.8797 55.7018 22.5781H29.1393C27.9174 23.8797 26.8549 25.3406 26.0049 26.9609Z" fill="#533566"/>
<path d="M54.3031 49.1351L62.5606 49.1406C69.0625 49.1406 74.3486 43.7865 74.375 37.2009C74.375 30.6153 69.0889 25.2611 62.5871 25.2611L22.4129 25.2344C15.9111 25.2344 10.625 30.5885 10.625 37.1741C10.625 43.7597 15.9111 49.1139 22.3865 49.1139L30.7061 49.1194L31.875 54.4531L26.107 58.3048C25.0957 59.022 24.1377 59.7923 23.2329 60.6423C19.7733 63.883 17.0855 68.0001 15.5953 72.7283L15.5154 72.9408C14.8235 75.1189 14.2913 77.4297 13.9453 79.6875H34.5312L42.4734 77.0312L51.7969 79.6875H71.0547C70.7087 77.4031 70.2031 75.0658 69.5112 72.8345C67.9943 68.0267 65.2799 63.8298 61.7405 60.5626C60.8623 59.7392 59.9043 58.9955 58.9462 58.2783L53.125 54.4531L54.3031 49.1351Z" fill="#00A6ED"/>
<path d="M60.9214 47.8125H24.0786C18.1006 47.8125 13.2812 43.6592 13.2812 38.5156C13.2812 33.3721 18.1269 29.2188 24.0786 29.2188L60.9214 29.2463C66.8994 29.2463 71.7188 33.3996 71.7188 38.5431C71.7188 43.6592 66.8731 47.8125 60.9214 47.8125Z" fill="#0074BA"/>
<path d="M33.2031 39.7107C33.2031 41.9112 31.4193 43.6951 29.2187 43.6951C27.0182 43.6951 25.2344 41.9112 25.2344 39.7107C25.2344 37.5102 27.0182 35.7263 29.2187 35.7263C31.4193 35.7263 33.2031 37.5102 33.2031 39.7107Z" fill="#E4B29A"/>
<path d="M59.7656 39.7107C59.7656 41.9112 57.9818 43.6951 55.7812 43.6951C53.5807 43.6951 51.7969 41.9112 51.7969 39.7107C51.7969 37.5102 53.5807 35.7263 55.7812 35.7263C57.9818 35.7263 59.7656 37.5102 59.7656 39.7107Z" fill="#E4B29A"/>
<path d="M55.7519 35.8328C55.7519 35.8062 55.7519 35.8062 55.7519 35.8328L55.7778 35.5406C55.8812 32.6719 53.6588 30.1484 50.8421 30.1484H34.1745C31.2544 30.1484 28.9804 32.725 29.2388 35.7L30.014 47.9453C30.6859 53.125 34.9755 56.9766 40.0663 56.9766H42.5212H44.9503C50.041 56.9766 54.3307 53.0984 55.0025 47.9453L55.7519 35.8328Z" fill="#EEBFAA"/>
<path d="M29.229 34.6453C29.2276 34.6303 29.206 34.6347 29.2042 34.6497C28.9226 36.9601 24.7422 72.3906 32.2086 79.6875H52.7073C60.2046 72.4359 56.0667 36.9043 55.795 34.6441C55.7932 34.6292 55.7718 34.6217 55.7702 34.6366C55.6196 35.975 53.805 49.6187 42.3812 49.6187C30.982 49.6187 29.3645 36.0334 29.229 34.6453Z" fill="#E6E6E6"/>
<path d="M42.5 48.1327C41.0288 48.1327 39.6665 47.7874 38.495 47.203C38.1136 46.9905 37.6776 47.442 37.9228 47.8139C38.9037 49.2749 40.5656 50.2311 42.5 50.2311C44.4071 50.2311 46.0963 49.2749 47.0772 47.8139C47.3224 47.442 46.8864 47.017 46.505 47.203C45.3335 47.7874 43.9712 48.1327 42.5 48.1327Z" fill="#990838"/>
<path d="M41.6079 44.7008C42.1693 44.4201 42.8301 44.4201 43.3915 44.7008L51.3602 48.6851C52.3452 49.1776 52.7445 50.3754 52.252 51.3604C51.7595 52.3454 50.5617 52.7447 49.5767 52.2522L42.4997 48.7137L35.4227 52.2522C34.4377 52.7447 33.2399 52.3454 32.7474 51.3604C32.2549 50.3754 32.6542 49.1776 33.6392 48.6851L41.6079 44.7008Z" fill="#D3D3D3"/>
<path d="M32.2014 35.1202C32.6461 35.7017 33.4773 35.8136 34.0598 35.371L34.0557 35.3741L34.0864 35.3526C34.1194 35.3303 34.1763 35.2929 34.2555 35.2462C34.4144 35.1523 34.6587 35.023 34.9739 34.9001C35.6053 34.6539 36.4983 34.4421 37.5606 34.5696C38.2889 34.657 38.9501 34.1374 39.0375 33.4092C39.1249 32.6809 38.6054 32.0197 37.8771 31.9323C36.2832 31.741 34.945 32.0604 34.0091 32.4252C33.5408 32.6078 33.1675 32.8038 32.9047 32.959C32.7731 33.0368 32.6681 33.1049 32.5919 33.1567C32.5537 33.1827 32.5227 33.2047 32.4989 33.2219L32.4687 33.244L32.4578 33.2522L32.4533 33.2556L32.4496 33.2584C31.8669 33.704 31.7558 34.5375 32.2014 35.1202Z" fill="#9B9B9B"/>
<path d="M50.2398 32.1968C49.3772 31.9449 48.2877 31.7829 47.0435 31.9322C46.3152 32.0196 45.7957 32.6809 45.8831 33.4091C45.9705 34.1374 46.6317 34.657 47.36 34.5696C48.1463 34.4752 48.8388 34.5666 49.4021 34.7202L51.1008 35.5161C51.7151 35.8039 52.4476 35.5824 52.7996 35.0025C53.1516 34.4225 53.0099 33.6705 52.471 33.2584L51.8272 32.8516C51.4503 32.6446 50.9117 32.3929 50.2398 32.1968Z" fill="#9B9B9B"/>
<path d="M32.3794 39.3124C32.7778 37.6921 34.2653 36.4702 36.0184 36.4702C37.8513 36.4702 39.3653 37.7718 39.7106 39.4983C39.7903 39.8702 39.4981 40.2155 39.0997 40.2155H33.0966C32.6184 40.2155 32.2731 39.764 32.3794 39.3124Z" fill="white"/>
<path d="M52.5409 39.3124C52.1424 37.6921 50.6549 36.4702 48.9018 36.4702C47.069 36.4702 45.5549 37.7718 45.2096 39.4983C45.1299 39.8702 45.4221 40.2155 45.8205 40.2155H51.8237C52.3018 40.2155 52.6471 39.764 52.5409 39.3124Z" fill="white"/>
<path d="M34.1862 39.5781C34.1862 38.25 35.2488 37.1875 36.5769 37.1875C37.905 37.1875 38.9941 38.25 38.9675 39.5781C38.9675 39.7906 38.9409 40.0031 38.8878 40.2156H34.2659C34.2128 40.0031 34.1862 39.7906 34.1862 39.5781Z" fill="#7D4533"/>
<path d="M50.7343 39.5781C50.7343 38.25 49.6718 37.1875 48.3437 37.1875C47.0156 37.1875 45.9265 38.25 45.9531 39.5781C45.9531 39.7906 45.9796 40.0031 46.0328 40.2156H50.6546C50.7078 40.0031 50.7343 39.7906 50.7343 39.5781Z" fill="#7D4533"/>
<path d="M36.5766 38.1968C37.3469 38.1968 37.9578 38.8077 37.9578 39.578C37.9578 39.8171 37.9047 40.0296 37.7719 40.2155H35.3547C35.2484 40.0296 35.1953 39.8171 35.1953 39.578C35.1953 38.8077 35.8063 38.1968 36.5766 38.1968Z" fill="black"/>
<path d="M48.3436 38.1968C47.5733 38.1968 46.9623 38.8077 46.9623 39.578C46.9623 39.8171 47.0154 40.0296 47.1483 40.2155H49.5654C49.6717 40.0296 49.7248 39.8171 49.7248 39.578C49.7248 38.8077 49.1139 38.1968 48.3436 38.1968Z" fill="black"/>
<path d="M36.1783 38.6218C36.1783 38.8565 35.988 39.0468 35.7533 39.0468C35.5185 39.0468 35.3283 38.8565 35.3283 38.6218C35.3283 38.3871 35.5185 38.1968 35.7533 38.1968C35.988 38.1968 36.1783 38.3871 36.1783 38.6218Z" fill="white"/>
<path d="M48.025 38.6218C48.025 38.8565 47.8347 39.0468 47.6 39.0468C47.3653 39.0468 47.175 38.8565 47.175 38.6218C47.175 38.3871 47.3653 38.1968 47.6 38.1968C47.8347 38.1968 48.025 38.3871 48.025 38.6218Z" fill="white"/>
<path d="M41.6234 39.3655L40.2421 43.8546C39.9499 44.7843 40.6405 45.714 41.6234 45.714H43.6952C44.6515 45.714 45.3421 44.7843 45.0765 43.8546L43.6952 39.3655C43.3499 38.3827 41.9421 38.3827 41.6234 39.3655Z" fill="#D19479"/>
<path d="M71.7188 61.0938C73.1915 61.0938 74.375 62.1706 74.375 63.5107V69.0625H69.0625V63.5107C69.0625 62.1706 70.246 61.0938 71.7188 61.0938Z" fill="#E4B29A"/>
<path d="M72.3829 14.078C71.8517 13.7859 71.1876 14.1843 71.1876 14.7952V19.0984C71.1876 20.2671 70.2314 21.2499 69.0626 21.2234C67.947 21.1968 67.0173 20.2937 67.0173 19.1515V14.7952C67.0173 14.1843 66.3532 13.7859 65.822 14.078C63.6704 15.2468 62.2095 17.5046 62.1829 20.1077C62.1563 22.7905 63.7235 25.1546 65.9814 26.3234C66.247 26.4562 66.4064 26.7218 66.4064 27.014V69.2749C66.4064 70.789 67.6548 72.0374 69.1689 72.0374C70.6829 72.0374 71.7188 70.789 71.7188 69.2749V27.014C71.7188 26.7218 72.0907 26.403 72.3564 26.2702C74.5345 25.1015 76.022 22.8171 76.022 20.1609C76.022 17.5312 74.561 15.2468 72.3829 14.078Z" fill="#F3AD61"/>
<path d="M62.4231 67.1377C62.447 66.0118 63.3075 65.0781 64.2876 65.0781H72.2715C73.4427 65.0781 74.375 66.1491 74.375 67.4947V77.2709C74.375 78.6165 73.4427 79.6875 72.2715 79.6875H64.2876C63.3075 79.6875 62.447 78.8087 62.4231 77.6828C62.3992 76.9139 62.7338 76.2548 63.2358 75.8704C62.7577 75.5134 62.4231 74.8543 62.4231 74.1403C62.4231 73.4263 62.7577 72.7947 63.2358 72.4103C62.7577 72.0533 62.4231 71.3942 62.4231 70.6802C62.4231 69.9662 62.7577 69.3346 63.2358 68.9502C62.7338 68.5657 62.3992 67.8792 62.4231 67.1377Z" fill="#EEBFAA"/>
<path d="M69.0625 23.8264C73.0968 23.8264 76.3672 20.556 76.3672 16.5217C76.3672 12.4875 73.0968 9.21704 69.0625 9.21704C65.0282 9.21704 61.7578 12.4875 61.7578 16.5217C61.7578 20.556 65.0282 23.8264 69.0625 23.8264Z" fill="#00D1ED"/>
<path d="M73.5515 12.3251C74.4546 13.547 74.375 15.1407 73.3656 15.8845C72.3562 16.6282 70.8156 16.2298 69.9125 15.0079C68.9828 13.786 69.0625 12.1923 70.0718 11.4485C71.0812 10.7048 72.6484 11.1032 73.5515 12.3251Z" fill="#B4F6FC"/>
<g opacity="0.5">
<path d="M47.6538 41.4865C47.3583 41.1782 46.8688 41.1678 46.5605 41.4633C46.2522 41.7587 46.2417 42.2482 46.5372 42.5565L47.5701 43.3294C48.2092 43.6968 49.145 44.0698 50.3095 44.0698C50.7366 44.0698 51.0828 43.7236 51.0828 43.2965C51.0828 42.8695 50.7366 42.5233 50.3095 42.5233C49.4819 42.5233 48.8107 42.2588 48.3408 41.9887C48.1118 41.8433 47.6538 41.5394 47.6538 41.4865Z" fill="#D6A089"/>
<path d="M38.7319 41.4633C38.4237 41.1679 37.9346 41.1782 37.639 41.4861L37.6125 41.5114C37.5864 41.5358 37.5433 41.5746 37.4844 41.623C37.366 41.7201 37.186 41.8539 36.9516 41.9887C36.4817 42.2588 35.8105 42.5233 34.9828 42.5233C34.5558 42.5233 34.2096 42.8695 34.2096 43.2965C34.2096 43.7236 34.5558 44.0698 34.9828 44.0698C36.1474 44.0698 37.0832 43.6968 37.7223 43.3294C38.0424 43.1454 38.2923 42.9605 38.4653 42.8185L38.7508 42.561L38.7532 42.5585L38.7552 42.5565C39.0506 42.2482 39.0402 41.7587 38.7319 41.4633Z" fill="#D6A089"/>
</g>
</svg>
