<svg width="85" height="85" viewBox="0 0 85 85" fill="none" xmlns="http://www.w3.org/2000/svg">
<path d="M64.7666 20.565C66.9019 23.6934 66.7381 28.5338 65.41 28.9695C63.6451 29.5487 62.5464 27.6829 62.2766 28.7828C62.0068 29.8826 61.3217 32.6219 61.0107 33.6387C60.6997 34.6556 60.6576 35.8177 58.6862 35.8592C56.7148 35.9007 26.6869 35.8592 26.6869 35.8592C26.6869 35.8592 24.757 36.295 24.1551 34.4066C23.5531 32.5181 21.2371 23.8524 22.6821 20.399C23.9699 17.3214 27.0398 16.9956 27.4342 16.5391C27.8285 16.0827 25.047 16.6222 24.2381 14.7131C23.3791 12.6858 27.9319 8.7365 31.1281 8.25921C36.1665 7.5068 39.138 10.2926 42.7073 10.9566C43.7117 11.1436 46.6379 9.83561 49.2857 10.3343C51.5442 10.7597 55.0755 14.3809 57.0884 16.2486C58.1323 17.2172 62.6314 17.4366 64.7666 20.565Z" fill="#321B41"/>
<path d="M26.5625 42.9565C29.4965 42.9565 31.875 40.5781 31.875 37.644C31.875 34.71 29.4965 32.3315 26.5625 32.3315C23.6285 32.3315 21.25 34.71 21.25 37.644C21.25 40.5781 23.6285 42.9565 26.5625 42.9565Z" fill="#00D1ED"/>
<path d="M58.4375 42.9565C61.3715 42.9565 63.75 40.5781 63.75 37.644C63.75 34.71 61.3715 32.3315 58.4375 32.3315C55.5035 32.3315 53.125 34.71 53.125 37.644C53.125 40.5781 55.5035 42.9565 58.4375 42.9565Z" fill="#00D1ED"/>
<path d="M42.5004 54.5361C33.361 54.5361 25.5249 57.5659 19.1333 63.2603V79.4385H65.7007V63.2603C59.3091 57.5659 51.6397 54.5361 42.5004 54.5361Z" fill="#1C1C1C"/>
<rect x="35.8594" y="45.1562" width="13.2812" height="19.4653" rx="6" fill="#0074BA"/>
<path d="M28.3887 61.5503V68.7305C28.3886 69.7681 28.4675 71.7603 30.8582 71.4282C33.0579 70.8887 37.6045 70.3874 37.8516 73.6694C38.0143 75.831 35.9631 76.2427 33.4521 76.0767C31.9198 75.9754 30.8167 76.6785 29.6753 77.7368C28.492 78.834 25.933 79.4385 25.0061 79.4385H15.9375C14.1528 79.4385 12.7002 78.3594 11.3306 76.4087C11.2196 76.2317 11.0924 76.0265 10.9564 75.807C10.3797 74.8766 9.64422 73.6899 9.31763 73.3167C9.08521 73.051 7.92725 71.9263 7.3877 71.4282L8.57056 65.8667L11.3306 67.9419L12.1191 67.4854L13.2397 59.9731L16.6016 64.7461L17.3486 64.248L20.2954 57.6074L21.9556 61.3843C22.1423 61.7578 22.6487 62.1147 23.0139 61.5503C23.2007 61.2617 23.2007 59.5581 23.2007 58.562L28.3887 61.5503Z" fill="#00A6ED"/>
<path d="M56.5582 61.5503V68.7305C56.5582 69.7681 56.4793 71.7603 54.0887 71.4282C51.889 70.8887 47.3423 70.3874 47.0953 73.6694C46.9326 75.831 48.9837 76.2427 51.4947 76.0767C53.027 75.9754 54.1302 76.6785 55.2715 77.7368C56.4548 78.834 59.0138 79.4385 59.9407 79.4385H69.0093C70.794 79.4385 72.2466 78.3594 73.6163 76.4087C73.7272 76.2317 73.8544 76.0265 73.9905 75.807C74.5671 74.8765 75.3026 73.6899 75.6292 73.3167C75.8616 73.051 77.0196 71.9263 77.5591 71.4282L76.3763 65.8667L73.6163 67.9419L72.8277 67.4854L71.7071 59.9731L68.3453 64.7461L67.5982 64.248L64.6514 57.6074L62.9913 61.3843C62.8045 61.7578 62.2981 62.1147 61.9329 61.5503C61.7461 61.2617 61.7461 59.5581 61.7461 58.562L56.5582 61.5503Z" fill="#00A6ED"/>
<path d="M59.1358 55.4985C60.5822 55.4985 61.7548 56.6711 61.7548 58.1175V62.5907C61.7548 64.0372 60.5822 65.2097 59.1358 65.2097C57.6894 65.2097 56.5168 64.0372 56.5168 62.5907V58.1175C56.5168 56.6711 57.6894 55.4985 59.1358 55.4985Z" fill="#37C9CD"/>
<path d="M67.8016 56.2851C69.1832 56.7189 69.9516 58.1905 69.5179 59.5722L68.1655 63.8797C67.7317 65.2613 66.26 66.0297 64.8784 65.596C63.4967 65.1622 62.7283 63.6905 63.1621 62.3088L64.5144 58.0014C64.9482 56.6197 66.4199 55.8513 67.8016 56.2851Z" fill="#37C9CD"/>
<path d="M75.0066 59.3825C76.2832 60.1242 76.7168 61.7603 75.9752 63.0369L73.7586 66.8522C73.0169 68.1288 71.3808 68.5624 70.1042 67.8207C68.8276 67.0791 68.394 65.443 69.1356 64.1664L71.3522 60.3511C72.0939 59.0745 73.73 58.6408 75.0066 59.3825Z" fill="#37C9CD"/>
<path d="M79.85 69.3124C80.6217 68.1658 80.3179 66.6108 79.1713 65.8391C78.0248 65.0673 76.4698 65.3712 75.6981 66.5177L74.4555 68.3638C73.6838 69.5103 73.9877 71.0654 75.1342 71.8371C76.2807 72.6088 77.8358 72.3049 78.6075 71.1584L79.85 69.3124Z" fill="#37C9CD"/>
<path d="M15.4294 59.5722C14.9956 58.1905 15.764 56.7189 17.1457 56.2851C18.5273 55.8513 19.999 56.6197 20.4328 58.0014L21.7851 62.3088C22.2189 63.6905 21.4505 65.1622 20.0688 65.596C18.6872 66.0297 17.2155 65.2613 16.7817 63.8797L15.4294 59.5722Z" fill="#37C9CD"/>
<path d="M9.9406 59.3825C8.66402 60.1242 8.23038 61.7603 8.97205 63.0369L11.1887 66.8522C11.9303 68.1288 13.5665 68.5624 14.8431 67.8207C16.1196 67.0791 16.5533 65.443 15.8116 64.1664L13.595 60.3511C12.8533 59.0745 11.2172 58.6408 9.9406 59.3825Z" fill="#37C9CD"/>
<path d="M5.09719 69.3124C4.32548 68.1658 4.62934 66.6108 5.77588 65.8391C6.92242 65.0673 8.47747 65.3712 9.24918 66.5177L10.4917 68.3638C11.2634 69.5103 10.9596 71.0654 9.81303 71.8371C8.66649 72.6088 7.11144 72.3049 6.33972 71.1584L5.09719 69.3124Z" fill="#37C9CD"/>
<path d="M25.8114 55.4985C24.365 55.4985 23.1925 56.6711 23.1925 58.1175V62.5907C23.1925 64.0372 24.365 65.2097 25.8114 65.2097C27.2578 65.2097 28.4304 64.0372 28.4304 62.5907V58.1175C28.4304 56.6711 27.2578 55.4985 25.8114 55.4985Z" fill="#37C9CD"/>
<path d="M26.5605 46.9136C26.1873 42.7217 25.8154 32.0824 25.8154 32.0824C25.8154 29.3431 27.2528 28.9915 27.9944 27.2472C28.6359 25.7384 28.5962 23.8591 28.5962 23.1902C28.5962 21.0216 30.7227 20.926 31.9165 20.7104C37.8931 19.6312 45.6128 19.1752 53.6231 20.7104C54.4564 20.8702 56.2285 21.7016 56.3208 23.1175C56.4453 25.0267 56.6673 27.4681 57.4622 28.098C59.2692 29.53 59.1825 31.2838 59.1433 32.0768L59.1431 32.0824C58.9217 36.5648 58.6182 43.7261 58.3525 46.9136C58.0631 50.3873 57.3584 56.7357 50.0745 58.0223C47.7376 58.4351 38.7627 58.7694 34.8613 58.0223C28.1304 56.7334 26.9338 51.1055 26.5605 46.9136Z" fill="#37C9CD"/>
<path d="M44.8125 35.4003C45.2991 33.1478 47.3029 31.46 49.701 31.46C52.0991 31.46 54.103 33.1478 54.5895 35.4003H44.8125Z" fill="#37C9CD"/>
<path d="M35.5273 41.4209C38.278 41.4209 40.5078 39.1911 40.5078 36.4404C40.5078 33.6898 38.278 31.46 35.5273 31.46C32.7767 31.46 30.5469 33.6898 30.5469 36.4404C30.5469 39.1911 32.7767 41.4209 35.5273 41.4209Z" fill="#321B41"/>
<path d="M50.1367 41.8359C52.8874 41.8359 55.1172 39.6061 55.1172 36.8555C55.1172 36.493 55.0785 36.1395 55.0049 35.799C54.5204 33.5558 52.5248 31.875 50.1367 31.875C47.3861 31.875 45.1562 34.1048 45.1562 36.8555C45.1562 39.6061 47.3861 41.8359 50.1367 41.8359Z" fill="#321B41"/>
<path d="M36.1499 40.3418C38.5338 40.3418 40.4663 38.4093 40.4663 36.0254C40.4663 33.6415 38.5338 31.709 36.1499 31.709C33.766 31.709 31.8335 33.6415 31.8335 36.0254C31.8335 38.4093 33.766 40.3418 36.1499 40.3418Z" fill="#FFCE7C"/>
<path d="M49.4727 40.3418C51.8565 40.3418 53.7891 38.4093 53.7891 36.0254C53.7891 33.6415 51.8565 31.709 49.4727 31.709C47.0888 31.709 45.1562 33.6415 45.1562 36.0254C45.1562 38.4093 47.0888 40.3418 49.4727 40.3418Z" fill="#FFCE7C"/>
<path d="M35.9424 37.4988C36.8593 37.4988 37.6025 36.7555 37.6025 35.8386C37.6025 34.9217 36.8593 34.1785 35.9424 34.1785C35.0255 34.1785 34.2822 34.9217 34.2822 35.8386C34.2822 36.7555 35.0255 37.4988 35.9424 37.4988Z" fill="#990838"/>
<path d="M49.0265 37.4988C49.9434 37.4988 50.6866 36.7555 50.6866 35.8386C50.6866 34.9217 49.9434 34.1785 49.0265 34.1785C48.1096 34.1785 47.3663 34.9217 47.3663 35.8386C47.3663 36.7555 48.1096 37.4988 49.0265 37.4988Z" fill="#990838"/>
<path d="M37.312 52.793H44.8657C44.8657 47.2148 39.9268 46.6503 37.312 46.6504C35.9424 46.6504 34.2407 47.3394 34.2407 49.7632C34.2407 52.187 36.2882 52.793 37.312 52.793Z" fill="black"/>
<path d="M45.1562 35.4003C45.1562 33.2031 47.6466 31.46 50.0447 31.46C52.4428 31.46 54.4467 33.1478 54.9332 35.4003H45.1562Z" fill="#37C9CD"/>
<path d="M43.6703 48.9331H38.5156C37.7821 48.9331 37.1875 48.3385 37.1875 47.605V46.6523C37.2293 46.651 37.2708 46.6504 37.312 46.6504C39.1207 46.6504 42.0414 46.9204 43.6703 48.9331Z" fill="#FFCE7C"/>
<path d="M41.1739 36.1577L39.3988 42.1289C39.0159 43.3446 39.9209 44.5961 41.1739 44.5961H43.854C45.107 44.5961 46.012 43.3446 45.6291 42.1289L43.8192 36.1577C43.4015 34.8348 41.5916 34.8348 41.1739 36.1577Z" fill="#00A6ED"/>
<path d="M37.312 52.793H44.8657C44.8657 47.2148 39.9268 46.6503 37.312 46.6504C35.9424 46.6504 34.2407 47.3394 34.2407 49.7632C34.2407 52.187 36.2882 52.793 37.312 52.793Z" fill="black"/>
<path d="M43.6703 48.9331H38.5156C37.7821 48.9331 37.1875 48.3385 37.1875 47.605V46.6523C37.2293 46.651 37.2708 46.6504 37.312 46.6504C39.1207 46.6504 42.0414 46.9204 43.6703 48.9331Z" fill="#FFCE7C"/>
<path d="M41.1113 36.1735L39.2717 42.06C38.8749 43.2585 39.8127 44.4922 41.1113 44.4922H43.8887C45.1873 44.4922 46.1251 43.2585 45.7283 42.06L43.8527 36.1735C43.4198 34.8693 41.5441 34.8693 41.1113 36.1735Z" fill="#00A6ED"/>
<path d="M58.6701 41.8306C58.6459 42.2909 58.6216 42.7405 58.5973 43.1748C57.7581 43.2827 56.7773 43.5898 55.9285 44.3935C54.8083 45.454 53.791 47.5015 53.791 51.5065C53.791 51.8732 53.4937 52.1705 53.1269 52.1705C52.7602 52.1705 52.4629 51.8732 52.4629 51.5065C52.4629 47.2936 53.5346 44.831 55.0154 43.429C56.2171 42.2912 57.6045 41.9326 58.6701 41.8306Z" fill="#00A6ED"/>
<path d="M26.3065 43.1839C26.2818 42.7454 26.2575 42.2946 26.2337 41.8374C27.2899 41.948 28.6442 42.3152 29.8206 43.429C31.3013 44.831 32.3731 47.2936 32.3731 51.5065C32.3731 51.8732 32.0757 52.1705 31.709 52.1705C31.3422 52.1705 31.0449 51.8732 31.0449 51.5065C31.0449 47.5015 30.0276 45.454 28.9075 44.3935C28.0814 43.6114 27.1304 43.2995 26.3065 43.1839Z" fill="#00A6ED"/>
<path d="M54.44 31.0276C54.9968 30.3071 54.8629 29.2708 54.1424 28.7141L54.1389 28.7113L54.1335 28.7072L54.1203 28.6972L54.0846 28.6708C54.0567 28.6504 54.0205 28.6245 53.9763 28.5942C53.8881 28.5336 53.7675 28.4547 53.6165 28.3648C53.3153 28.1855 52.8884 27.9599 52.3526 27.7503C51.2817 27.3313 49.7498 26.9665 47.9205 27.1905C47.0167 27.3012 46.3737 28.1236 46.4844 29.0274C46.595 29.9312 47.4174 30.5741 48.3212 30.4635C49.4884 30.3205 50.4638 30.5521 51.1511 30.821C51.4944 30.9553 51.7593 31.0967 51.9301 31.1983C52.0151 31.2489 52.0756 31.2889 52.1094 31.3122L52.1392 31.3332C52.8592 31.8794 53.8863 31.7441 54.44 31.0276Z" fill="#321B41"/>
<path d="M30.6831 28.715C29.9626 29.2718 29.8298 30.3072 30.3866 31.0277C30.9403 31.7442 31.9674 31.8795 32.6874 31.3333L32.7172 31.3123C32.751 31.289 32.8115 31.249 32.8965 31.1984C33.0673 31.0968 33.3322 30.9554 33.6755 30.8211C34.3628 30.5522 35.3382 30.3207 36.5054 30.4636C37.4092 30.5742 38.2316 29.9313 38.3422 29.0275C38.4529 28.1237 37.8099 27.3013 36.9061 27.1906C35.0768 26.9666 33.5449 27.3314 32.474 27.7504C31.9383 27.96 31.5113 28.1856 31.2101 28.3649C31.0591 28.4548 30.9385 28.5337 30.8503 28.5943C30.8061 28.6247 30.7699 28.6505 30.742 28.6709L30.7063 28.6973L30.6931 28.7073L30.6877 28.7114L30.6831 28.715Z" fill="#321B41"/>
</svg>
