<svg width="85" height="85" viewBox="0 0 85 85" fill="none" xmlns="http://www.w3.org/2000/svg">
<path d="M15.9375 44.9436C15.9375 44.9436 5.3125 58.4376 5.3125 79.6876H13.2812L42.5 71.7188L71.7188 79.6876H79.6875C79.6875 58.411 69.0625 44.9436 69.0625 44.9436H15.9375Z" fill="#533566"/>
<path d="M42.5 45.1563C35.1687 45.1563 28.3954 43.5629 23.2954 48.3175V79.7144H61.7047V48.2379C56.6047 43.5363 49.7781 45.1563 42.5 45.1563Z" fill="#6B438B"/>
<path d="M41.3313 56.6313L31.875 42.5266H53.125L43.7484 56.6579C43.1641 57.5079 41.9156 57.5079 41.3313 56.6313Z" fill="#C3EF3C"/>
<path d="M37.1875 44.0634C37.1875 47.5848 39.5486 49.8047 42.4874 49.8047C45.4263 49.8047 47.7874 47.5848 47.8125 44.0634V39.8438H37.1875V44.0634Z" fill="#8D65C5"/>
<path d="M15.6424 60.0825L15.556 60.2982C14.0587 64.7478 13.2812 69.4131 13.2812 74.1053V79.6875H23.9062V47.8125C20.163 51.1025 17.2548 55.2824 15.6424 60.0825Z" fill="#8D65C5"/>
<path d="M71.7179 74.2002C71.7467 69.466 70.9981 64.7587 69.501 60.2397C67.8598 55.371 64.9231 51.121 61.0938 47.8125V79.6875H71.6892L71.7179 74.2002Z" fill="#8D65C5"/>
<path d="M15.9377 42.4999H37.1877V44.4349C37.1877 49.8309 33.9423 54.6819 29.061 56.6168C25.7893 57.8977 22.0425 56.6168 20.1956 53.51L14.7602 44.4621C14.2853 43.5355 14.9351 42.3909 15.9377 42.4999Z" fill="#F92F60"/>
<path d="M69.0001 42.4999H47.8127V44.4349C47.8127 49.8309 51.0581 54.6819 55.9394 56.6168C59.2112 57.8977 62.9579 56.6168 64.8048 53.51L70.2402 44.4621C70.7151 43.5355 70.0027 42.3909 69.0001 42.4999Z" fill="#F92F60"/>
<path d="M42.832 68.3984C45.2159 68.3984 47.1484 66.4659 47.1484 64.082C47.1484 61.6981 45.2159 59.7656 42.832 59.7656C40.4481 59.7656 38.5156 61.6981 38.5156 64.082C38.5156 66.4659 40.4481 68.3984 42.832 68.3984Z" fill="#F92F60"/>
<path d="M45.295 61.8969C45.8794 62.6938 45.8262 63.7297 45.1622 64.2078C44.4981 64.6859 43.4887 64.4469 42.9044 63.65C42.32 62.8531 42.3731 61.8172 43.0372 61.3391C43.7012 60.8609 44.7106 61.1 45.295 61.8969Z" fill="#F7A7B8"/>
<path d="M33.8672 28.2227C33.8672 30.6065 31.9347 32.5391 29.5508 32.5391C27.1669 32.5391 25.2344 30.6065 25.2344 28.2227C25.2344 25.8388 27.1669 23.9062 29.5508 23.9062C31.9347 23.9062 33.8672 25.8388 33.8672 28.2227Z" fill="#E4B29A"/>
<path d="M59.7656 28.2227C59.7656 30.6065 57.8331 32.5391 55.4492 32.5391C53.0653 32.5391 51.1328 30.6065 51.1328 28.2227C51.1328 25.8388 53.0653 23.9062 55.4492 23.9062C57.8331 23.9062 59.7656 25.8388 59.7656 28.2227Z" fill="#E4B29A"/>
<path d="M41.2907 9.29688C33.8904 9.29688 28.0509 15.4722 28.5891 22.7342L29.6386 37.3112C30.0961 41.8963 33.7559 45.1562 38.2229 45.1562H46.7803C51.2474 45.1562 54.9072 41.8963 55.3646 37.3112L56.4141 22.7342C56.9254 15.4722 51.0859 9.29688 43.7126 9.29688H41.2907Z" fill="#EEBFAA"/>
<path d="M56.2636 11.5016L55.1498 10.9438C54.3542 10.5453 53.6382 10.0406 53.0283 9.40313L50.8537 7.25157C49.236 5.63126 46.8227 5.07344 44.6481 5.84375C43.2425 6.34844 41.7044 6.34844 40.2989 5.84375C38.3895 4.8875 36.1088 5.25938 34.5972 6.77344L31.9452 9.42969C31.3353 10.0406 30.5927 10.5719 29.8237 10.9703L28.7364 11.5016C26.6944 12.5109 25.5805 14.7688 25.9783 17.0266L27.4634 25.1281C27.6225 25.925 28.3121 26.5359 29.1076 26.5625C29.1076 26.5625 28.9485 24.2516 28.869 22.7906C28.8159 21.9938 29.1342 21.25 29.6911 20.7453L30.1684 20.3203C30.8314 19.7094 31.2027 18.8859 31.2027 17.9828V15.725C31.2027 15.0875 31.627 14.5297 32.2635 14.3703C33.9342 13.9453 37.5143 13.2281 42.5 13.2281C47.4857 13.2281 51.0658 13.9453 52.7365 14.3703C53.373 14.5297 53.7973 15.0875 53.7973 15.725V17.9828C53.7973 18.8594 54.1686 19.7094 54.8316 20.3203L55.3355 20.7719C55.8924 21.2766 56.2106 22.0203 56.1576 22.7906C56.0515 24.2516 55.9189 26.5359 55.9189 26.5359C56.7145 26.4828 57.3775 25.8984 57.5366 25.1281L59.0217 17.0266C59.4195 14.7688 58.3056 12.5109 56.2636 11.5016Z" fill="#FFF9BA"/>
<path d="M40.747 22.8437C41.1454 23.4281 41.7563 23.9061 42.5 23.9061C43.2437 23.9061 43.9344 23.4281 44.3063 22.8437C44.9438 21.8874 45.9 21.1437 47.0688 20.9578L61.2 16.7609C62.0766 16.4953 62.7938 17.4781 62.2891 18.2484L53.1781 31.9015L51.9297 33.7343C51.1859 34.8234 49.6188 34.9031 48.7688 33.8937C48.7688 33.8937 44.1469 28.7405 43.8281 27.8905C43.8281 27.8905 43.2482 26.5477 42.5 26.5624C41.7667 26.5768 41.172 27.8905 41.172 27.8905C40.8532 28.7405 36.2845 33.8937 36.2845 33.8937C35.4345 34.9031 33.8673 34.8234 33.1236 33.7343L31.8751 31.9015L22.7642 18.2484C22.2595 17.4781 22.9767 16.4953 23.8532 16.7609L37.9845 20.9578C39.1532 21.1437 40.1095 21.8874 40.747 22.8437Z" fill="#533566"/>
<path d="M41.5531 27.0408L40.2402 31.5033C39.9624 32.4064 40.6189 33.3361 41.5279 33.3361H43.4721C44.3811 33.3361 45.0376 32.4064 44.7598 31.5033L43.4469 27.0408C43.1691 26.058 41.8561 26.058 41.5531 27.0408Z" fill="#D19479"/>
<path d="M44.9993 35.6041C44.0726 35.9909 43.0898 36.1713 42.1631 36.1198C41.8542 36.094 41.7138 36.4807 41.9665 36.6354C43.0336 37.2542 44.3815 37.3831 45.6171 36.8674C46.8526 36.3518 47.6108 35.3205 47.8074 34.1861C47.8635 33.9025 47.4423 33.7478 47.2738 33.9799C46.7122 34.6244 45.926 35.2174 44.9993 35.6041Z" fill="#990838"/>
<path d="M18.5938 42.5H21.25C21.25 41.7622 20.679 41.1719 19.9343 41.1719C19.1895 41.1719 18.5938 41.7622 18.5938 42.5Z" fill="#8D65C5"/>
<path d="M25.2344 41.1719C24.4965 41.1719 23.9062 41.7622 23.9062 42.5H26.5625C26.5625 41.7622 25.9722 41.1719 25.2344 41.1719Z" fill="#8D65C5"/>
<path d="M26.5625 45.1562C26.5625 44.4184 27.1528 43.8281 27.8906 43.8281C28.6285 43.8281 29.2188 44.4184 29.2188 45.1562H26.5625Z" fill="#8D65C5"/>
<path d="M21.25 45.1562H23.9062C23.9062 44.4184 23.3353 43.8281 22.5905 43.8281C21.8458 43.8281 21.25 44.4184 21.25 45.1562Z" fill="#8D65C5"/>
<path d="M61.0938 42.5H58.4375C58.4375 41.7622 59.0278 41.1719 59.7656 41.1719C60.5035 41.1719 61.0938 41.7622 61.0938 42.5Z" fill="#8D65C5"/>
<path d="M65.0781 41.1719C64.3403 41.1719 63.75 41.7622 63.75 42.5H66.4062C66.4062 41.7622 65.816 41.1719 65.0781 41.1719Z" fill="#8D65C5"/>
<path d="M61.0938 45.1562C61.0938 44.4184 61.684 43.8281 62.4219 43.8281C63.1597 43.8281 63.75 44.4184 63.75 45.1562H61.0938Z" fill="#8D65C5"/>
<path d="M55.7812 45.1562H58.4375C58.4375 44.4184 57.8472 43.8281 57.1094 43.8281C56.3715 43.8281 55.7812 44.4184 55.7812 45.1562Z" fill="#8D65C5"/>
<path d="M38.7546 25.6327C38.1171 26.7218 36.7624 27.3062 35.4609 26.9077C34.1062 26.5093 33.2827 25.2077 33.4155 23.8796C33.4421 23.5874 33.7343 23.4015 34.0265 23.4812L38.4359 24.8093C38.7812 24.9155 38.9405 25.314 38.7546 25.6327Z" fill="#C3EF3C"/>
<path d="M46.0065 25.6327C46.644 26.7218 47.9987 27.3062 49.3002 26.9077C50.6549 26.5093 51.4784 25.2077 51.3456 23.8796C51.319 23.5874 51.0268 23.4015 50.7346 23.4812L46.3252 24.8093C45.9799 24.9155 45.8206 25.314 46.0065 25.6327Z" fill="#C3EF3C"/>
</svg>
