<svg width="545" height="523" viewBox="0 0 545 523" fill="none" xmlns="http://www.w3.org/2000/svg">
<path d="M246.953 221.813C254.447 225.572 263.133 227.696 272.5 227.696C281.867 227.696 290.553 225.572 298.047 221.813C300.431 220.505 303.156 223.284 301.623 225.572C295.492 234.724 284.762 240.771 272.5 240.771C260.237 240.771 249.508 234.724 243.376 225.572C241.844 223.284 244.398 220.505 246.953 221.813Z" fill="#212121"/>
<path d="M207.952 171.637C210.507 161.668 220.044 154.149 231.285 154.149C243.036 154.149 252.744 162.158 254.958 172.781C255.469 175.069 253.596 177.194 251.041 177.194H249.72C250.033 175.941 250.189 174.688 250.189 173.435C250.189 165.1 243.377 158.562 234.861 158.562C226.345 158.562 219.363 165.263 219.363 173.435C219.363 174.688 219.519 175.941 219.832 177.194H212.55C209.485 177.194 207.271 174.579 207.952 171.637Z" fill="#212121"/>
<path d="M243.547 173.272C243.547 168.532 239.63 164.773 234.691 164.773C233.445 164.773 232.265 165.012 231.196 165.445C231.869 165.922 232.305 166.688 232.305 167.551C232.305 168.996 231.085 170.166 229.58 170.166C228.528 170.166 227.616 169.594 227.161 168.757C226.319 170.06 225.835 171.605 225.835 173.272C225.835 174.743 226.175 176.05 226.856 177.194H242.525C243.206 176.05 243.547 174.743 243.547 173.272Z" fill="#212121"/>
<path d="M337.219 171.637C334.664 161.668 325.126 154.149 313.886 154.149C302.134 154.149 292.426 162.158 290.212 172.781C289.701 175.069 291.575 177.194 294.129 177.194H295.451C295.138 175.941 294.981 174.688 294.981 173.435C294.811 165.1 301.794 158.562 310.309 158.562C318.825 158.562 325.808 165.263 325.808 173.435C325.808 174.688 325.651 175.941 325.339 177.194H332.62C335.686 177.194 337.9 174.579 337.219 171.637Z" fill="#212121"/>
<path d="M307.03 165.361C308.041 164.981 309.147 164.773 310.309 164.773C315.248 164.773 319.165 168.532 319.165 173.272C319.165 174.743 318.824 176.05 318.143 177.194H302.474C301.793 176.05 301.452 174.743 301.452 173.272C301.452 171.475 302.015 169.819 302.983 168.456C303.367 169.454 304.367 170.166 305.541 170.166C307.046 170.166 308.266 168.996 308.266 167.551C308.266 166.634 307.774 165.828 307.03 165.361Z" fill="#212121"/>
<path fill-rule="evenodd" clip-rule="evenodd" d="M442.642 506.673H85.1562C80.6393 506.673 76.3073 504.951 73.1133 501.886C69.9194 498.821 68.125 494.664 68.125 490.329V433.126C68.1413 424.842 68.7022 416.595 69.7945 408.43H44.6219C38.8313 408.43 34.0625 403.854 34.0625 398.297V75.5082C34.0625 69.9514 38.8313 65.3751 44.6219 65.3751H161.942C165.505 62.1288 169.558 59.3699 173.991 57.2033L181.553 53.673C185.141 51.8237 188.438 49.4961 191.346 46.7596L208.514 30.3178C215.725 23.3778 224.992 18.7419 235.051 17.0425C245.109 15.3431 255.469 16.663 264.717 20.8221C270.111 22.4262 275.897 22.3403 281.237 20.5769C291.266 17.1809 302.093 16.5853 312.461 18.8593C322.829 21.1332 332.312 26.1834 339.807 33.4231L354.131 47.1518C356.922 49.8024 360.136 52.0092 363.651 53.6894L370.838 57.0562L371.043 57.1542C375.511 59.325 379.59 62.1016 383.169 65.3751H500.038C505.998 65.3751 510.597 69.9514 510.597 75.5082V398.134C510.767 403.854 505.998 408.43 500.208 408.43H475.27C476.318 416.598 476.829 424.846 476.79 433.126V473.985C476.79 478.285 475.906 482.542 474.189 486.513C472.472 490.484 469.955 494.091 466.783 497.128C463.611 500.164 459.846 502.57 455.703 504.208C451.561 505.846 447.122 506.683 442.642 506.673ZM95.9197 334.555C88.0118 347.607 81.7292 361.431 77.1522 375.743H68.125V98.0626H146.051C145.801 101.931 146.028 105.837 146.741 109.699L154.235 149.562C150.337 154.269 147.497 159.7 145.893 165.512C144.289 171.324 143.957 177.392 144.917 183.333C145.877 189.275 148.108 194.961 151.471 200.035C154.833 205.108 159.253 209.459 164.454 212.812L166.821 243.62C167.499 250.115 169.05 256.499 171.437 262.611C140.108 279.801 114.059 304.617 95.9197 334.555ZM398.037 109.912C398.821 105.985 399.095 102.006 398.871 98.0626H476.705V375.743H468.067C463.793 362.206 457.977 349.101 450.688 336.674C433.42 307.238 408.474 282.617 378.298 265.227C381.341 258.197 383.275 250.772 384.038 243.195L386.746 208.089C394.797 200.656 399.707 190.633 400.534 179.942C401.36 169.25 398.046 158.641 391.225 150.15L398.037 109.912ZM394.614 473.985H442.642V433.126C442.776 402.51 433.894 372.481 417.02 346.497C400.146 320.514 375.967 299.633 347.267 286.261C345.002 285.193 343.013 283.655 341.443 281.759C340.542 280.671 339.792 279.479 339.208 278.215C337.762 279.28 336.267 280.284 334.729 281.226L353.568 312.653C355.101 315.203 352.716 318.154 349.14 318.154H331.257C327.17 318.154 325.296 322.045 328.021 324.192L331.504 326.875H360.466C368.367 326.875 374.688 332.759 374.688 340.113V369.969C386.069 372.438 394.613 382.235 394.613 393.884V418.212L394.614 418.347L394.614 418.4L394.614 473.985ZM295.485 290.783C290.868 298.487 282.265 303.636 272.499 303.636C262.586 303.636 253.97 298.471 249.403 290.783H295.485ZM210.896 281.602C209.876 280.994 208.875 280.358 207.894 279.696C207.741 279.886 207.583 280.074 207.421 280.257C205.805 282.091 203.788 283.56 201.514 284.561C171.907 297.657 146.823 318.608 129.223 344.941C111.623 371.275 102.242 401.891 102.188 433.175V473.985H150.215V393.884C150.215 386.679 153.858 380.525 158.44 376.355C162.869 372.323 169.059 369.345 175.591 369.367V357.601C175.591 340.604 190.339 326.712 208.774 326.875H214.346L217.829 324.192C220.554 322.045 218.681 318.154 214.593 318.154H196.71C193.134 318.154 190.749 315.203 192.282 312.653L210.896 281.602ZM197.793 202.414L200.747 240.825C201.065 243.832 201.727 246.783 202.715 249.627C210.683 264.793 226.56 274.44 244.74 274.44H300.261C324.675 274.44 344.936 257.043 347.467 232.244L349.869 199.687C343.966 207.439 334.424 212.497 323.594 212.497H311.332C302.354 212.497 294.191 208.995 288.289 203.316C287.341 207.174 283.779 210.209 279.313 210.209H266.029C261.31 210.209 257.641 207 256.883 202.987C250.968 208.764 242.734 212.333 233.669 212.333H221.577C212.16 212.333 203.716 208.509 197.793 202.414ZM272.5 165.59C274.914 165.59 276.986 166.903 278.049 168.831C274.933 165.263 268.561 165.702 266.373 170.147C267.048 167.477 269.512 165.59 272.5 165.59ZM353.711 147.614L353.569 147.612H333.622C335.8 147.217 337.759 146.099 339.093 144.18C342.329 140.257 341.477 134.537 337.39 131.432C336.879 130.941 322.573 120.481 301.794 122.933C296.515 123.587 292.768 128.163 293.449 133.066C294.13 138.133 298.729 141.728 304.008 141.075C316.385 139.649 324.924 145.282 325.908 145.931L325.979 145.978C327.305 146.787 328.631 147.351 330.017 147.612H294.3C289.191 147.612 284.422 149.9 281.186 153.659C279.143 156.111 276.077 157.582 272.5 157.582C268.924 157.582 265.858 156.111 263.814 153.659C260.579 149.9 255.81 147.612 250.7 147.612H215.098C216.456 147.36 217.823 146.831 219.022 146.141C219.363 145.814 228.049 139.767 240.992 141.238C246.272 141.728 250.871 138.133 251.552 133.23C252.063 128.163 248.316 123.75 243.206 123.096C222.599 120.808 208.122 131.105 207.611 131.595C203.524 134.537 202.842 140.257 205.908 144.18C207.26 145.997 209.365 147.195 211.624 147.612H191.436C191.311 145.813 191.188 144.066 191.071 142.47C190.919 140.329 191.853 138.004 193.734 136.352L196.923 133.614C203.255 128.229 206.59 120.574 206.59 112.8V98.4173C206.59 98.2405 206.651 98.0673 206.769 97.9209L206.803 97.8812C209.429 97.7318 212.592 97.2516 215.715 96.7473C217.297 96.4917 218.948 96.215 220.692 95.9226C223.731 95.4131 227.057 94.8555 230.802 94.2792C242.386 92.4969 256.79 90.7358 272.501 90.7358C304.349 90.7358 327.317 95.1895 337.885 97.6845C337.991 97.7111 338.118 97.7781 338.233 97.9209C338.351 98.0673 338.412 98.2406 338.412 98.4173V112.8C338.412 120.724 342.028 128.273 347.974 133.523L348.043 133.583L351.418 136.498L351.431 136.509C353.198 138.056 354.105 140.031 354.117 142.102L353.711 147.614ZM377.583 473.985V418.4L377.582 418.265L377.581 418.212V393.884C377.581 389.409 373.73 385.713 369.066 385.713V404.508H368.749C368.676 406.258 368.018 407.958 366.842 409.343C365.225 411.248 362.801 412.353 360.24 412.353H316.781C316.231 412.46 315.661 412.516 315.078 412.516C312.396 412.516 310.527 414.51 310.477 416.475L310.474 416.578C310.424 417.887 311.124 419.233 312.478 420.099C314.862 421.624 316.287 424.197 316.27 426.946C316.253 429.695 314.797 432.252 312.396 433.75C311.221 434.483 310.48 435.754 310.48 437.032C310.48 438.491 311.202 439.602 312.237 440.217C314.716 441.69 316.238 444.277 316.27 447.075C316.302 449.873 314.84 452.492 312.396 454.017C311.221 454.75 310.48 456.02 310.48 457.298C310.48 458.757 311.202 459.869 312.237 460.483C314.701 461.947 316.22 464.513 316.269 467.294C316.315 469.932 315.032 472.42 312.841 473.985H377.583ZM175.762 385.717L175.589 385.711C174.39 385.688 172.204 386.353 170.16 388.213C168.19 390.007 167.246 392.1 167.246 393.884V473.985H231.988C229.797 472.42 228.513 469.932 228.56 467.294C228.608 464.513 230.128 461.947 232.592 460.483C233.626 459.869 234.349 458.757 234.349 457.298C234.349 456.02 233.608 454.75 232.433 454.017C229.989 452.492 228.527 449.873 228.559 447.075C228.591 444.277 230.113 441.69 232.592 440.217C233.626 439.602 234.349 438.491 234.349 437.032C234.349 435.754 233.608 434.483 232.433 433.75C230.031 432.252 228.575 429.695 228.559 426.946C228.542 424.197 229.967 421.624 232.35 420.099C233.705 419.233 234.405 417.887 234.355 416.578L234.351 416.475C234.301 414.51 232.433 412.516 229.751 412.516C229.167 412.516 228.598 412.46 228.048 412.353H184.387C181.836 412.353 179.419 411.255 177.802 409.363C176.616 407.975 175.951 406.267 175.878 404.508H175.762V385.717ZM308.435 326.875H237.415V303.016C245.349 313.315 258.098 319.98 272.499 319.98C287.428 319.98 300.58 312.73 308.435 301.699V326.875ZM357.23 340.931H206.078C197.903 340.931 191.261 347.305 191.261 355.15C191.261 362.995 197.903 369.369 206.078 369.369H357.23V340.931ZM232.477 206.613C247.975 206.613 260.579 194.519 260.579 179.646H260.408V167.715C260.408 159.706 253.766 153.332 245.421 153.332H209.996C201.65 153.332 195.008 159.706 195.008 167.715V179.646C195.008 194.519 207.611 206.613 223.11 206.613H232.477ZM322.402 206.613C337.9 206.613 350.504 194.519 350.504 179.646V167.715C350.504 159.706 343.861 153.332 335.516 153.332H299.921C291.575 153.332 284.933 159.706 284.933 167.715V179.646C284.933 194.519 297.536 206.613 313.035 206.613H322.402Z" fill="#212121"/>
</svg>
